<?xml version="1.0" encoding="UTF-8" standalone="no"?>
<!-- Created with Inkscape (http://www.inkscape.org/) -->

<svg
   width="16.933332mm"
   height="16.933332mm"
   viewBox="0 0 16.933332 16.933333"
   version="1.1"
   id="svg1"
   inkscape:version="1.4.2 (ebf0e940d0, 2025-05-08)"
   sodipodi:docname="TRAX-logo-inkscape.svg"
   inkscape:export-filename="bitmap.svg"
   inkscape:export-xdpi="96"
   inkscape:export-ydpi="96"
   xmlns:inkscape="http://www.inkscape.org/namespaces/inkscape"
   xmlns:sodipodi="http://sodipodi.sourceforge.net/DTD/sodipodi-0.dtd"
   xmlns="http://www.w3.org/2000/svg"
   xmlns:svg="http://www.w3.org/2000/svg">
  <sodipodi:namedview
     id="namedview1"
     pagecolor="#ffffff"
     bordercolor="#000000"
     borderopacity="0.25"
     inkscape:showpageshadow="2"
     inkscape:pageopacity="0.0"
     inkscape:pagecheckerboard="0"
     inkscape:deskcolor="#d1d1d1"
     inkscape:document-units="mm"
     inkscape:zoom="6.9644859"
     inkscape:cx="12.491949"
     inkscape:cy="29.65043"
     inkscape:window-width="1712"
     inkscape:window-height="894"
     inkscape:window-x="1536"
     inkscape:window-y="32"
     inkscape:window-maximized="1"
     inkscape:current-layer="layer1" />
  <defs
     id="defs1">
    <rect
       x="4.1627449"
       y="3.3024621"
       width="27.837255"
       height="57.395058"
       id="rect4" />
    <rect
       x="3.4520323"
       y="7.1071254"
       width="15.894517"
       height="15.594442"
       id="rect2" />
    <rect
       x="6.4979432"
       y="9.3407933"
       width="37.363174"
       height="22.13362"
       id="rect1" />
    <filter
       style="color-interpolation-filters:sRGB;"
       inkscape:label="Blur"
       id="filter3"
       x="-0.028346468"
       y="-0.028346481"
       width="1.0566929"
       height="1.056693">
      <feGaussianBlur
         stdDeviation="0.1 0.1"
         result="fbSourceGraphic"
         id="feGaussianBlur3" />
      <feColorMatrix
         result="fbSourceGraphicAlpha"
         in="fbSourceGraphic"
         values="0 0 0 -1 0 0 0 0 -1 0 0 0 0 -1 0 0 0 0 1 0"
         id="feColorMatrix3" />
      <feGaussianBlur
         id="feGaussianBlur4"
         stdDeviation="0.1 0.1"
         result="blur"
         in="fbSourceGraphic" />
    </filter>
    <filter
       style="color-interpolation-filters:sRGB;"
       inkscape:label="Blur"
       id="filter5"
       x="-0.030477907"
       y="-0.032379208"
       width="1.0609558"
       height="1.0647584">
      <feGaussianBlur
         stdDeviation="0.2 0.2"
         result="blur"
         id="feGaussianBlur5" />
    </filter>
    <filter
       style="color-interpolation-filters:sRGB;"
       inkscape:label="Blur"
       id="filter6"
       x="-0.028639039"
       y="-0.031366729"
       width="1.0572781"
       height="1.0627335">
      <feGaussianBlur
         stdDeviation="0.2 0.2"
         result="blur"
         id="feGaussianBlur6" />
    </filter>
  </defs>
  <g
     inkscape:label="Layer 1"
     inkscape:groupmode="layer"
     id="layer1"
     transform="translate(-21.920405,-83.383502)">
    <rect
       style="fill:#1a1a1a;stroke-width:0.172851"
       id="rect3"
       width="16.933329"
       height="16.933329"
       x="21.920404"
       y="83.383507" />
    <ellipse
       style="fill:#000000;stroke-width:0.264582;filter:url(#filter3)"
       id="circle3"
       cx="30.387072"
       cy="91.850166"
       rx="8.4666634"
       ry="8.4666595"
       transform="matrix(0.93205894,0,0,0.93205894,2.0645298,6.2403973)" />
    <circle
       style="fill:#4d4d4d;stroke-width:0.237277"
       id="path3"
       cx="30.387072"
       cy="91.850166"
       r="7.5928879" />
    <g
       id="g5"
       transform="matrix(0.87337299,0,0,0.87337299,4.3734735,10.709739)"
       style="fill:#000000;filter:url(#filter6)">
      <path
         id="path4"
         style="font-family:'Ubuntu Condensed';-inkscape-font-specification:'Ubuntu Condensed, ';text-align:center;letter-spacing:0px;word-spacing:0px;text-anchor:middle;white-space:pre;fill:#000000;stroke-width:1.52983"
         d="m 31.429121,85.263657 c -0.974439,0.0745 -1.28225,1.350065 -0.760383,2.058329 0.705063,1.728852 1.359969,3.47687 2.026925,5.220687 -0.95164,2.553533 -1.895577,5.108928 -2.763656,7.692117 0.799522,0.27487 1.975941,0.60985 2.528281,-0.265795 0.502934,-1.394226 0.95015,-2.82232 1.517132,-4.199013 0.150264,-0.641144 0.296678,0.378417 0.442331,0.587 0.50204,1.322686 0.982695,2.654483 1.387026,4.010708 0.725445,0.33856 1.904646,0.25661 2.111972,-0.672495 0.0409,-1.02981 -0.55801,-1.970722 -0.831581,-2.947222 -0.538427,-1.448951 -1.08712,-2.895109 -1.62945,-4.343002 0.896329,-2.292296 1.790992,-4.585244 2.6884,-6.877117 -0.860804,-0.230088 -2.084008,-0.548293 -2.665983,0.361869 -0.500513,1.22474 -0.899762,2.453312 -1.393037,3.69555 -0.526861,-1.401751 -1.057514,-2.802083 -1.581977,-4.204729 -0.35652,-0.04738 -0.714949,-0.136497 -1.076,-0.116887 z" />
      <path
         id="path5"
         style="font-family:'Ubuntu Condensed';-inkscape-font-specification:'Ubuntu Condensed, ';text-align:center;letter-spacing:0px;word-spacing:0px;text-anchor:middle;white-space:pre;fill:#000000;stroke-width:1.59879"
         d="m 26.48698,85.288354 c -1.7004,0.0026 -3.400805,4.98e-4 -5.101201,-0.0032 0,0.85847 0,1.71694 0,2.57541 0.91876,0 1.837521,0 2.75628,0 0,4.135489 1e-6,8.270977 0,12.406466 0.781992,0.38725 2.02938,0.52851 2.466568,-0.417767 0.297409,-1.184228 0.05953,-2.439608 0.134453,-3.65263 0,-2.778689 0,-5.557379 0,-8.336069 0.831793,0 1.663586,0 2.495378,0 0.372685,-0.759288 0.531136,-1.945432 -0.348936,-2.416948 -0.74963,-0.326408 -1.61142,-0.105624 -2.402542,-0.155261 z" />
    </g>
    <g
       id="g3"
       transform="matrix(0.873373,0,0,0.873373,4.3734735,10.709738)">
      <path
         id="path1"
         style="font-family:'Ubuntu Condensed';-inkscape-font-specification:'Ubuntu Condensed, ';text-align:center;letter-spacing:0px;word-spacing:0px;text-anchor:middle;white-space:pre;fill:#ffffff;stroke-width:1.52983"
         d="m 31.429121,85.263657 c -0.974439,0.0745 -1.28225,1.350065 -0.760383,2.058329 0.705063,1.728852 1.359969,3.47687 2.026925,5.220687 -0.95164,2.553533 -1.895577,5.108928 -2.763656,7.692117 0.799522,0.27487 1.975941,0.60985 2.528281,-0.265795 0.502934,-1.394226 0.95015,-2.82232 1.517132,-4.199013 0.150264,-0.641144 0.296678,0.378417 0.442331,0.587 0.50204,1.322686 0.982695,2.654483 1.387026,4.010708 0.725445,0.33856 1.904646,0.25661 2.111972,-0.672495 0.0409,-1.02981 -0.55801,-1.970722 -0.831581,-2.947222 -0.538427,-1.448951 -1.08712,-2.895109 -1.62945,-4.343002 0.896329,-2.292296 1.790992,-4.585244 2.6884,-6.877117 -0.860804,-0.230088 -2.084008,-0.548293 -2.665983,0.361869 -0.500513,1.22474 -0.899762,2.453312 -1.393037,3.69555 -0.526861,-1.401751 -1.057514,-2.802083 -1.581977,-4.204729 -0.35652,-0.04738 -0.714949,-0.136497 -1.076,-0.116887 z" />
      <path
         id="text4"
         style="font-family:'Ubuntu Condensed';-inkscape-font-specification:'Ubuntu Condensed, ';text-align:center;letter-spacing:0px;word-spacing:0px;text-anchor:middle;white-space:pre;fill:#ffffff;stroke-width:1.59879"
         d="m 26.48698,85.288354 c -1.7004,0.0026 -3.400805,4.98e-4 -5.101201,-0.0032 0,0.85847 0,1.71694 0,2.57541 0.91876,0 1.837521,0 2.75628,0 0,4.135489 1e-6,8.270977 0,12.406466 0.781992,0.38725 2.02938,0.52851 2.466568,-0.417767 0.297409,-1.184228 0.05953,-2.439608 0.134453,-3.65263 0,-2.778689 0,-5.557379 0,-8.336069 0.831793,0 1.663586,0 2.495378,0 0.372685,-0.759288 0.531136,-1.945432 -0.348936,-2.416948 -0.74963,-0.326408 -1.61142,-0.105624 -2.402542,-0.155261 z" />
    </g>
  </g>
</svg>
