<?xml version="1.0" encoding="UTF-8" standalone="no"?>
<!-- Created with Inkscape (http://www.inkscape.org/) -->

<svg
   width="16.933332mm"
   height="16.933331mm"
   viewBox="0 0 16.933332 16.933331"
   version="1.1"
   id="svg1"
   xmlns="http://www.w3.org/2000/svg"
   xmlns:svg="http://www.w3.org/2000/svg">
  <defs
     id="defs1">
    <filter
       style="color-interpolation-filters:sRGB"
       id="filter3"
       x="-0.028346468"
       y="-0.028346481"
       width="1.0566929"
       height="1.056693">
      <feGaussianBlur
         stdDeviation="0.1 0.1"
         result="fbSourceGraphic"
         id="feGaussianBlur3" />
      <feColorMatrix
         result="fbSourceGraphicAlpha"
         in="fbSourceGraphic"
         values="0 0 0 -1 0 0 0 0 -1 0 0 0 0 -1 0 0 0 0 1 0"
         id="feColorMatrix3" />
      <feGaussianBlur
         id="feGaussianBlur4"
         stdDeviation="0.1 0.1"
         result="blur"
         in="fbSourceGraphic" />
    </filter>
    <filter
       style="color-interpolation-filters:sRGB"
       id="filter5"
       x="-0.030477907"
       y="-0.032379208"
       width="1.0609558"
       height="1.0647584">
      <feGaussianBlur
         stdDeviation="0.2 0.2"
         result="blur"
         id="feGaussianBlur5" />
    </filter>
  </defs>
  <g
     id="layer1"
     transform="translate(-21.920405,-83.383502)">
    <rect
       style="fill:#1a1a1a;stroke-width:0.192594"
       id="rect3"
       width="18.867481"
       height="18.867481"
       x="20.953329"
       y="82.416428" />
    <ellipse
       style="fill:#000000;stroke-width:0.264582;filter:url(#filter3)"
       id="circle3"
       cx="30.387072"
       cy="91.850166"
       rx="8.4666634"
       ry="8.4666595"
       transform="matrix(0.93205894,0,0,0.93205894,2.0645298,6.2403973)" />
    <circle
       style="fill:#4d4d4d;stroke-width:0.237277"
       id="path3"
       cx="30.387072"
       cy="91.850166"
       r="7.5928879" />
    <g
       id="g5"
       transform="matrix(0.87337299,0,0,0.87337299,4.3734735,10.709739)"
       style="fill:#1a1a1a;filter:url(#filter5)">
      <path
         id="path4"
         style="font-family:'Ubuntu Condensed';-inkscape-font-specification:'Ubuntu Condensed, ';text-align:center;letter-spacing:-1.44924px;word-spacing:0px;text-anchor:middle;white-space:pre;fill:#1a1a1a;stroke-width:1.42592"
         d="m 24.60061,85.938574 c -0.905585,0.007 -1.796438,0.21979 -2.680205,0.436173 0,4.501015 0,9.002031 0,13.503045 2.191634,0.665648 5.032913,0.856848 6.58163,-1.509024 1.376109,-2.254268 1.356594,-5.304235 0.956019,-7.942119 -0.321859,-2.308671 -1.929523,-4.257907 -3.911233,-4.413463 -0.313707,-0.05442 -0.630423,-0.0653 -0.946211,-0.07461 z m 0.07629,2.610935 c 1.16561,-0.147645 2.271345,0.813034 2.404525,2.236228 0.242138,1.96964 0.403951,4.20484 -0.454129,5.996145 -0.534962,0.889624 -1.538669,0.976573 -2.375058,0.905897 0.02392,-3.026535 -0.04771,-6.159769 0.0356,-9.119969 0.12969,-0.0056 0.259349,-0.01395 0.389061,-0.0183 z" />
      <path
         id="path5"
         style="font-family:'Ubuntu Condensed';-inkscape-font-specification:'Ubuntu Condensed, ';text-align:center;letter-spacing:-1.44924px;word-spacing:0px;text-anchor:middle;white-space:pre;fill:#1a1a1a;stroke-width:1.48504"
         d="m 32.465379,85.520659 c -0.765078,0.06848 -1.517514,0.223977 -2.259765,0.417969 0,4.654297 -1e-6,9.308594 0,13.962893 2.007333,0.451999 4.420932,0.836999 6.15625,-0.556643 1.442967,-1.334231 1.585149,-3.616668 0.943359,-5.376953 -0.212072,-0.586938 -0.756481,-1.087741 -1.121094,-1.478516 1.226832,-1.272747 1.354339,-3.324627 0.71875,-4.90625 -0.717616,-1.736451 -2.736186,-2.220646 -4.4375,-2.0625 z m 1.042969,2.517578 c 1.12429,0.03959 1.312799,1.383287 1.140886,2.256693 -0.05598,0.941193 -1.083698,1.195803 -1.859246,1.09487 -0.142516,-0.577796 -0.02007,-1.420558 -0.06094,-2.1 0.07791,-0.525729 -0.308087,-1.52472 0.570503,-1.264777 0.0696,0.0044 0.139196,0.0088 0.208794,0.01321 z m -0.154297,5.816407 c 0.955334,-0.126402 1.711928,0.709376 1.710225,1.626933 0.12423,0.898694 -0.09639,2.199565 -1.207152,2.290774 -0.399452,-0.0014 -1.319538,0.258313 -1.128073,-0.417317 0,-1.166797 0,-2.333593 0,-3.50039 0.208333,0 0.416667,0 0.625,0 z" />
    </g>
    <g
       id="g3"
       transform="matrix(0.873373,0,0,0.873373,4.3734735,10.709738)">
      <path
         id="text1"
         style="font-family:'Ubuntu Condensed';-inkscape-font-specification:'Ubuntu Condensed, ';text-align:center;letter-spacing:-1.44924px;word-spacing:0px;text-anchor:middle;white-space:pre;fill:#e6e6e6;stroke-width:1.42592"
         d="m 24.60061,85.938574 c -0.905585,0.007 -1.796438,0.21979 -2.680205,0.436173 0,4.501015 0,9.002031 0,13.503045 2.191634,0.665648 5.032913,0.856848 6.58163,-1.509024 1.376109,-2.254268 1.356594,-5.304235 0.956019,-7.942119 -0.321859,-2.308671 -1.929523,-4.257907 -3.911233,-4.413463 -0.313707,-0.05442 -0.630423,-0.0653 -0.946211,-0.07461 z m 0.07629,2.610935 c 1.16561,-0.147645 2.271345,0.813034 2.404525,2.236228 0.242138,1.96964 0.403951,4.20484 -0.454129,5.996145 -0.534962,0.889624 -1.538669,0.976573 -2.375058,0.905897 0.02392,-3.026535 -0.04771,-6.159769 0.0356,-9.119969 0.12969,-0.0056 0.259349,-0.01395 0.389061,-0.0183 z" />
      <path
         id="path1"
         style="font-family:'Ubuntu Condensed';-inkscape-font-specification:'Ubuntu Condensed, ';text-align:center;letter-spacing:-1.44924px;word-spacing:0px;text-anchor:middle;white-space:pre;fill:#e6e6e6;stroke-width:1.48504"
         d="m 32.465379,85.520659 c -0.765078,0.06848 -1.517514,0.223977 -2.259765,0.417969 0,4.654297 -1e-6,9.308594 0,13.962893 2.007333,0.451999 4.420932,0.836999 6.15625,-0.556643 1.442967,-1.334231 1.585149,-3.616668 0.943359,-5.376953 -0.212072,-0.586938 -0.756481,-1.087741 -1.121094,-1.478516 1.226832,-1.272747 1.354339,-3.324627 0.71875,-4.90625 -0.717616,-1.736451 -2.736186,-2.220646 -4.4375,-2.0625 z m 1.042969,2.517578 c 1.12429,0.03959 1.312799,1.383287 1.140886,2.256693 -0.05598,0.941193 -1.083698,1.195803 -1.859246,1.09487 -0.142516,-0.577796 -0.02007,-1.420558 -0.06094,-2.1 0.07791,-0.525729 -0.308087,-1.52472 0.570503,-1.264777 0.0696,0.0044 0.139196,0.0088 0.208794,0.01321 z m -0.154297,5.816407 c 0.955334,-0.126402 1.711928,0.709376 1.710225,1.626933 0.12423,0.898694 -0.09639,2.199565 -1.207152,2.290774 -0.399452,-0.0014 -1.319538,0.258313 -1.128073,-0.417317 0,-1.166797 0,-2.333593 0,-3.50039 0.208333,0 0.416667,0 0.625,0 z" />
    </g>
  </g>
</svg>
